<svg width="1269" height="690" viewBox="0 0 1269 690" fill="none" xmlns="http://www.w3.org/2000/svg">
<g clip-path="url(#clip0_57075_9)">
<rect width="1269" height="690" fill="white"/>
<rect width="1269" height="690" fill="#FFFFED"/>
<rect width="1269" height="690" fill="#F7F7EE"/>
<path d="M232.125 246.308C226.555 227.026 254.712 225.866 208.66 200.171C193.397 195.026 171.035 188.658 203.692 204.342C244.514 223.948 222.593 237.911 224.008 245.169C225.424 252.427 246.037 275.525 246.481 289.706C246.925 303.887 259.552 295.436 257.793 287.156C256.035 278.876 237.695 265.591 232.125 246.308Z" stroke="#CDC5FD"/>
<path d="M233.616 242.623C228.046 223.34 256.203 222.181 210.151 196.485C194.888 191.341 172.526 184.972 205.183 200.657C246.005 220.262 224.084 234.225 225.499 241.483C226.915 248.741 247.528 271.84 247.972 286.021C248.416 300.202 261.043 291.75 259.284 283.47C257.526 275.19 239.186 261.905 233.616 242.623Z" fill="#F7F7EE" stroke="#CDC5FD"/>
<path d="M234.772 241.324C229.202 222.042 257.359 220.882 211.307 195.187C196.044 190.042 173.682 183.674 206.339 199.358C247.161 218.964 225.24 232.927 226.655 240.185C228.071 247.443 248.684 270.541 249.128 284.722C249.572 298.903 262.199 290.452 260.44 282.172C258.682 273.892 240.342 260.607 234.772 241.324Z" fill="#CDC5FD"/>
<path d="M983.559 398.115C972.006 438.109 1030.41 440.514 934.889 493.81C903.231 504.481 856.851 517.69 924.586 485.158C1009.26 444.493 963.788 415.532 966.724 400.478C969.66 385.424 1012.42 337.515 1013.34 308.102C1014.26 278.688 1040.45 296.218 1036.8 313.392C1033.15 330.566 995.111 358.121 983.559 398.115Z" stroke="#C6DF2E"/>
<path d="M986.651 405.759C975.099 445.754 1033.5 448.159 937.981 501.454C906.324 512.125 859.943 525.334 927.679 492.802C1012.35 452.138 966.881 423.177 969.816 408.123C972.752 393.068 1015.51 345.16 1016.43 315.746C1017.35 286.333 1043.54 303.862 1039.89 321.036C1036.24 338.21 998.204 365.765 986.651 405.759Z" fill="#F7F7EE" stroke="#C6DF2E"/>
<path d="M989.049 408.452C977.496 448.446 1035.9 450.851 940.379 504.147C908.722 514.818 862.341 528.027 930.076 495.495C1014.75 454.83 969.278 425.87 972.214 410.815C975.15 395.761 1017.91 347.853 1018.83 318.439C1019.75 289.026 1045.94 306.555 1042.29 323.729C1038.64 340.903 1000.6 368.458 989.049 408.452Z" fill="#C6DF2E"/>
<path d="M1116.89 332.514L1116.9 332.466C1117.88 331.754 1116.02 319.936 1100.82 278.363C1081.82 226.398 1042.55 212.344 945.206 196.269C847.859 180.194 856.369 330.171 761.036 234.698C665.703 139.224 791.687 128.848 839.562 44.1981C887.437 -40.4514 978.987 37.0994 1053 48.1652C1127.01 59.2311 1111.02 146.429 1162.9 229.192C1214.77 311.956 1196.08 274.586 1261.93 340.583C1327.77 406.58 1295.95 468.806 1263.79 496.108C1231.63 523.409 1207.43 503.518 1156.66 452.013C1105.92 400.53 1111.03 368.85 1116.89 332.514Z" fill="#A6A5BB"/>
<path d="M1120.87 349.313L1120.87 349.266C1121.85 348.554 1120 336.735 1104.79 295.163C1085.79 243.197 1046.52 229.144 949.177 213.069C851.831 196.993 860.34 346.971 765.007 251.497C669.674 156.024 795.659 145.647 843.534 60.9978C891.409 -23.6516 982.958 53.8991 1056.97 64.965C1130.98 76.0308 1115 163.229 1166.87 245.992C1218.74 328.756 1200.05 291.386 1265.9 357.383C1331.74 423.38 1299.92 485.606 1267.76 512.907C1235.6 540.209 1211.4 520.318 1160.63 468.813C1109.89 417.33 1115 385.649 1120.87 349.313Z" stroke="#A6A5BB"/>
<path d="M1121.16 367.696L1121.17 367.649C1122.15 366.936 1120.29 355.118 1105.09 313.545C1086.09 261.58 1046.82 247.526 949.474 231.451C852.128 215.376 860.637 365.353 765.305 269.88C669.972 174.406 795.956 164.03 843.831 79.3802C891.706 -5.26929 983.256 72.2815 1057.27 83.3473C1131.28 94.4131 1115.29 181.611 1167.17 264.375C1219.04 347.138 1200.35 309.768 1266.2 375.765C1332.04 441.762 1300.22 503.988 1268.06 531.29C1235.9 558.591 1211.7 538.7 1160.93 487.195C1110.19 435.713 1115.3 404.032 1121.16 367.696Z" stroke="#A6A5BB"/>
<path d="M74.5469 507.445L74.583 507.413C74.6773 506.21 85.7059 501.576 129.067 492.673C183.268 481.543 215.853 507.57 280.673 581.955C345.492 656.34 213.408 727.891 344.729 758.85C476.049 789.81 418.692 677.161 465.567 591.954C512.443 506.747 398.36 469.59 350.062 412.429C301.765 355.268 235.967 414.679 138.294 414.022C40.6201 413.364 82.2357 409.634 -8.51275 388.278C-99.2612 366.922 -135.49 426.691 -141.826 468.397C-148.161 510.103 -118.521 520.249 -48.0257 536.386C22.4388 552.517 46.7096 531.523 74.5469 507.445Z" fill="#C6DF2E"/>
<path d="M43.8613 281.283L56.6285 292.245" stroke="#312D2D" stroke-width="3"/>
<circle cx="74.6616" cy="304.988" r="24.4668" transform="rotate(-101.301 74.6616 304.988)" fill="#B0A5D9"/>
<g filter="url(#filter0_d_57075_9)">
<circle cx="73.0412" cy="304.48" r="23.9668" transform="rotate(-101.301 73.0412 304.48)" stroke="black" stroke-dasharray="2 2" shape-rendering="crispEdges"/>
</g>
<circle cx="73.7887" cy="305.992" r="23.9668" transform="rotate(-101.301 73.7887 305.992)" stroke="black" stroke-dasharray="2 2"/>
<path d="M65.5987 287.258C66.2034 287.061 66.8201 286.887 67.4479 286.736L67.5648 287.222C67.869 287.149 68.176 287.082 68.4856 287.02C68.7952 286.958 69.1045 286.902 69.4135 286.853L69.3346 286.359C69.9722 286.257 70.6084 286.181 71.2422 286.13L71.2824 286.628C71.912 286.577 72.539 286.552 73.1623 286.55L73.1613 286.05C73.8056 286.049 74.4462 286.074 75.0817 286.123L75.0431 286.621C75.6713 286.67 76.2944 286.743 76.9114 286.84L76.9892 286.346C77.6244 286.446 78.2532 286.571 78.8742 286.72L78.7576 287.207C79.3694 287.353 79.9736 287.524 80.5689 287.717L80.7234 287.242C81.3338 287.44 81.935 287.662 82.5258 287.907L82.3344 288.369C82.915 288.609 83.4852 288.872 84.0439 289.156L84.2708 288.711C84.842 289.002 85.4013 289.315 85.9475 289.649L85.6865 290.075C86.2219 290.403 86.7443 290.751 87.2526 291.12L87.546 290.715C88.0644 291.091 88.5683 291.487 89.0564 291.902L88.7323 292.283C89.2096 292.69 89.6715 293.115 90.1166 293.558L90.4696 293.204C90.9225 293.656 91.3585 294.125 91.7762 294.613L91.3966 294.938C91.804 295.413 92.1935 295.906 92.5641 296.414L92.9682 296.119C93.3443 296.636 93.7013 297.168 94.0379 297.716L93.6118 297.978C93.9387 298.51 94.2459 299.057 94.5321 299.618L94.9775 299.391C95.2671 299.959 95.5358 300.541 95.7823 301.136L95.3203 301.327C95.5588 301.903 95.776 302.492 95.971 303.093L96.4466 302.938C96.6429 303.543 96.8171 304.16 96.968 304.788L96.4818 304.904C96.555 305.209 96.6225 305.516 96.6844 305.825C96.7463 306.135 96.8019 306.444 96.8513 306.753L97.345 306.674C97.447 307.312 97.5232 307.948 97.5744 308.582L97.076 308.622C97.1269 309.252 97.1526 309.879 97.1538 310.502L97.6538 310.501C97.655 311.145 97.6307 311.786 97.5815 312.421L97.083 312.383C97.0344 313.011 96.9611 313.634 96.8639 314.251L97.3578 314.329C97.2577 314.964 97.1328 315.593 96.9839 316.214L96.4976 316.097C96.3509 316.709 96.1804 317.313 95.987 317.909L96.4625 318.063C96.2642 318.673 96.0422 319.275 95.7975 319.865L95.3356 319.674C95.0951 320.255 94.8322 320.825 94.5477 321.384L94.9933 321.61C94.7024 322.182 94.3894 322.741 94.0552 323.287L93.6287 323.026C93.3011 323.562 92.9527 324.084 92.5844 324.592L92.9892 324.886C92.6134 325.404 92.2174 325.908 91.8018 326.396L91.4211 326.072C91.0147 326.549 90.5893 327.011 90.1457 327.456L90.4999 327.809C90.0486 328.262 89.5788 328.698 89.0915 329.116L88.7661 328.736C88.2909 329.144 87.7987 329.533 87.2903 329.904L87.5848 330.308C87.0687 330.684 86.5362 331.041 85.9883 331.378L85.7266 330.951C85.1944 331.278 84.6473 331.586 84.086 331.872L84.3132 332.317C83.7454 332.607 83.1634 332.875 82.5681 333.122L82.3768 332.66C81.8009 332.898 81.2122 333.116 80.6115 333.311L80.7659 333.786C80.1611 333.983 79.5445 334.157 78.9166 334.308L78.7998 333.821C78.4955 333.895 78.1885 333.962 77.8789 334.024C77.5694 334.086 77.26 334.142 76.951 334.191L77.03 334.685C76.3923 334.787 75.7561 334.863 75.1224 334.914L75.0821 334.416C74.4526 334.467 73.8256 334.492 73.2023 334.493L73.2032 334.993C72.5589 334.995 71.9184 334.97 71.2828 334.921L71.3214 334.423C70.6932 334.374 70.0701 334.301 69.4531 334.204L69.3753 334.697C68.7401 334.597 68.1113 334.472 67.4903 334.324L67.6069 333.837C66.9951 333.691 66.391 333.52 65.7957 333.327L65.6412 333.802C65.0308 333.604 64.4295 333.382 63.8388 333.137L64.0301 332.675C63.4496 332.435 62.8793 332.172 62.3206 331.887L62.0937 332.333C61.5225 332.042 60.9632 331.729 60.417 331.395L60.678 330.968C60.1426 330.641 59.6202 330.292 59.112 329.924L58.8185 330.329C58.3001 329.953 57.7962 329.557 57.3081 329.141L57.6323 328.761C57.1549 328.354 56.693 327.929 56.2479 327.485L55.895 327.84C55.442 327.388 55.006 326.918 54.5883 326.431L54.9679 326.106C54.5606 325.631 54.171 325.138 53.8004 324.63L53.3964 324.924C53.0202 324.408 52.6632 323.876 52.3266 323.328L52.7527 323.066C52.4258 322.534 52.1187 321.987 51.8324 321.426L51.387 321.653C51.0974 321.085 50.8287 320.503 50.5822 319.908L51.0442 319.716C50.8058 319.141 50.5885 318.552 50.3935 317.951L49.9179 318.106C49.7216 317.501 49.5475 316.884 49.3966 316.256L49.8827 316.139C49.8096 315.835 49.742 315.528 49.6801 315.219C49.6183 314.909 49.5627 314.6 49.5132 314.291L49.0195 314.37C48.9175 313.732 48.8413 313.096 48.7901 312.462L49.2885 312.422C49.2376 311.792 49.212 311.165 49.2108 310.542L48.7108 310.543C48.7095 309.899 48.7339 309.258 48.783 308.622L49.2815 308.661C49.3301 308.033 49.4034 307.41 49.5006 306.793L49.0067 306.715C49.1068 306.08 49.2317 305.451 49.3807 304.83L49.8669 304.947C50.0136 304.335 50.1841 303.731 50.3775 303.135L49.902 302.981C50.1003 302.37 50.3223 301.769 50.567 301.178L51.0289 301.37C51.2694 300.789 51.5323 300.219 51.8168 299.66L51.3713 299.433C51.6621 298.862 51.9751 298.303 52.3093 297.757L52.7358 298.018C53.0634 297.482 53.4118 296.96 53.7802 296.452L53.3753 296.158C53.7511 295.64 54.1472 295.136 54.5627 294.648L54.9434 294.972C55.3499 294.495 55.7753 294.033 56.2188 293.588L55.8646 293.235C56.316 292.782 56.7857 292.346 57.273 291.928L57.5984 292.308C58.0736 291.9 58.5659 291.511 59.0743 291.14L58.7797 290.736C59.2959 290.36 59.8283 290.003 60.3762 289.666L60.6379 290.092C61.1701 289.765 61.7172 289.458 62.2785 289.172L62.0513 288.727C62.6191 288.437 63.2011 288.168 63.7965 287.922L63.9877 288.384C64.5636 288.145 65.1523 287.928 65.753 287.733L65.5987 287.258Z" stroke="#050701" stroke-dasharray="2 2"/>
<circle cx="38.9267" cy="276.855" r="8.43684" transform="rotate(-101.301 38.9267 276.855)" fill="#393939"/>
<path d="M510.159 132.66L496.028 141.796" stroke="#312D2D" stroke-width="3"/>
<circle cx="478.58" cy="155.571" r="24.4668" transform="rotate(5.1661 478.58 155.571)" fill="#E1E1E1"/>
<g filter="url(#filter1_d_57075_9)">
<circle cx="479.643" cy="154.067" r="23.9668" transform="rotate(5.1661 479.643 154.067)" stroke="black" stroke-dasharray="2 2" shape-rendering="crispEdges"/>
</g>
<circle cx="477.98" cy="154.355" r="23.9668" transform="rotate(5.1661 477.98 154.355)" stroke="black" stroke-dasharray="2 2"/>
<path d="M498.268 151.812C498.285 152.447 498.277 153.088 498.244 153.733L497.744 153.707C497.728 154.02 497.706 154.333 497.678 154.648C497.649 154.962 497.615 155.275 497.575 155.585L498.07 155.649C497.988 156.29 497.88 156.921 497.75 157.544L497.26 157.441C497.131 158.059 496.978 158.668 496.802 159.266L497.282 159.407C497.1 160.025 496.895 160.632 496.668 161.228L496.201 161.049C495.976 161.638 495.729 162.215 495.461 162.779L495.913 162.994C495.637 163.574 495.339 164.142 495.02 164.695L494.587 164.446C494.273 164.991 493.938 165.522 493.584 166.038L493.996 166.321C493.633 166.85 493.249 167.364 492.847 167.861L492.458 167.546C492.063 168.035 491.65 168.507 491.218 168.962L491.581 169.306C491.14 169.771 490.682 170.219 490.206 170.648L489.871 170.277C489.405 170.698 488.923 171.1 488.426 171.483L488.731 171.879C488.224 172.27 487.701 172.641 487.164 172.991L486.891 172.572C486.366 172.915 485.827 173.237 485.275 173.538L485.515 173.977C484.954 174.283 484.38 174.568 483.794 174.831L483.59 174.374C483.018 174.63 482.436 174.865 481.843 175.076L482.011 175.547C481.41 175.761 480.798 175.953 480.177 176.12L480.047 175.637C479.444 175.8 478.832 175.939 478.213 176.055L478.304 176.546C477.678 176.663 477.043 176.756 476.403 176.823L476.35 176.326C475.73 176.392 475.104 176.433 474.473 176.45L474.486 176.95C473.85 176.966 473.21 176.959 472.565 176.925L472.591 176.426C472.278 176.41 471.965 176.388 471.65 176.359C471.336 176.331 471.023 176.296 470.713 176.256L470.649 176.752C470.008 176.669 469.377 176.562 468.754 176.431L468.857 175.942C468.239 175.812 467.63 175.659 467.032 175.484L466.891 175.963C466.273 175.782 465.666 175.577 465.07 175.35L465.249 174.883C464.66 174.658 464.083 174.411 463.519 174.143L463.304 174.595C462.724 174.318 462.156 174.02 461.603 173.702L461.852 173.268C461.307 172.954 460.776 172.619 460.26 172.265L459.977 172.677C459.448 172.314 458.934 171.931 458.437 171.529L458.752 171.14C458.263 170.745 457.791 170.331 457.336 169.9L456.992 170.263C456.526 169.822 456.079 169.363 455.65 168.888L456.021 168.553C455.6 168.087 455.198 167.605 454.815 167.108L454.419 167.413C454.028 166.905 453.657 166.383 453.307 165.846L453.726 165.573C453.383 165.047 453.061 164.509 452.76 163.957L452.321 164.197C452.015 163.635 451.73 163.061 451.467 162.476L451.923 162.271C451.667 161.7 451.433 161.118 451.222 160.525L450.751 160.693C450.537 160.091 450.345 159.479 450.178 158.859L450.661 158.728C450.498 158.125 450.359 157.514 450.243 156.894L449.752 156.986C449.635 156.359 449.542 155.725 449.475 155.084L449.972 155.032C449.906 154.412 449.865 153.786 449.848 153.154L449.348 153.168C449.332 152.532 449.339 151.891 449.373 151.246L449.872 151.272C449.888 150.96 449.91 150.646 449.939 150.332C449.967 150.017 450.001 149.705 450.042 149.395L449.546 149.33C449.629 148.69 449.736 148.058 449.867 147.436L450.356 147.539C450.486 146.92 450.639 146.312 450.814 145.714L450.334 145.573C450.516 144.955 450.721 144.347 450.948 143.752L451.415 143.93C451.64 143.342 451.887 142.765 452.155 142.201L451.703 141.986C451.979 141.405 452.277 140.838 452.596 140.284L453.03 140.534C453.344 139.989 453.678 139.458 454.033 138.942L453.62 138.659C453.984 138.13 454.367 137.616 454.769 137.119L455.158 137.433C455.553 136.945 455.967 136.472 456.398 136.017L456.035 135.673C456.476 135.208 456.935 134.76 457.41 134.331L457.745 134.703C458.211 134.282 458.693 133.88 459.19 133.497L458.885 133.101C459.393 132.71 459.915 132.339 460.452 131.989L460.725 132.407C461.25 132.065 461.789 131.743 462.341 131.441L462.101 131.003C462.662 130.696 463.237 130.411 463.822 130.149L464.027 130.605C464.598 130.349 465.18 130.115 465.773 129.904L465.605 129.433C466.207 129.218 466.818 129.027 467.439 128.86L467.569 129.342C468.173 129.18 468.784 129.04 469.404 128.925L469.312 128.433C469.939 128.316 470.573 128.224 471.214 128.156L471.266 128.653C471.886 128.588 472.512 128.547 473.144 128.53L473.13 128.03C473.766 128.013 474.407 128.021 475.051 128.054L475.026 128.554C475.338 128.57 475.652 128.592 475.966 128.62C476.281 128.649 476.593 128.683 476.903 128.723L476.968 128.227C477.608 128.31 478.24 128.418 478.862 128.548L478.759 129.038C479.377 129.167 479.986 129.32 480.584 129.496L480.725 129.016C481.343 129.198 481.951 129.402 482.546 129.63L482.368 130.097C482.956 130.322 483.533 130.568 484.097 130.837L484.312 130.385C484.893 130.661 485.46 130.959 486.014 131.278L485.764 131.711C486.309 132.025 486.84 132.36 487.356 132.714L487.639 132.302C488.168 132.665 488.682 133.049 489.179 133.451L488.865 133.839C489.353 134.235 489.826 134.648 490.281 135.08L490.625 134.717C491.09 135.158 491.538 135.616 491.967 136.091L491.595 136.427C492.016 136.892 492.418 137.375 492.801 137.872L493.197 137.567C493.588 138.074 493.959 138.597 494.309 139.134L493.89 139.407C494.233 139.932 494.555 140.471 494.857 141.022L495.295 140.783C495.602 141.344 495.887 141.918 496.149 142.504L495.693 142.708C495.949 143.279 496.183 143.862 496.394 144.455L496.865 144.287C497.08 144.888 497.271 145.5 497.438 146.121L496.956 146.251C497.118 146.854 497.258 147.466 497.373 148.085L497.865 147.994C497.981 148.62 498.074 149.255 498.142 149.895L497.645 149.948C497.71 150.568 497.751 151.194 497.768 151.825L498.268 151.812Z" stroke="#050701" stroke-dasharray="2 2"/>
<circle cx="515.805" cy="129.183" r="8.43684" transform="rotate(5.1661 515.805 129.183)" fill="#DCD9D9"/>
<circle cx="515.805" cy="129.183" r="8.43684" transform="rotate(5.1661 515.805 129.183)" fill="#FFD8D8"/>
<path d="M988.078 82.4834L996.7 77.4716" stroke="#7A6D6D"/>
<circle cx="1007.34" cy="69.859" r="14.5" transform="rotate(-172.12 1007.34 69.859)" fill="#605DE0"/>
<g filter="url(#filter2_d_57075_9)">
<circle cx="1006.74" cy="70.667" r="14" transform="rotate(-172.12 1006.74 70.667)" stroke="black" stroke-dasharray="2 2" shape-rendering="crispEdges"/>
</g>
<circle cx="1007.74" cy="70.5431" r="14" transform="rotate(-172.12 1007.74 70.5431)" stroke="black" stroke-dasharray="2 2"/>
<path d="M995.675 72.6177C995.639 71.993 995.643 71.3598 995.69 70.7212L996.189 70.7577C996.211 70.4548 996.243 70.1505 996.285 69.8453C996.328 69.54 996.379 69.2385 996.44 68.941L995.95 68.8406C996.079 68.2133 996.247 67.6028 996.451 67.0114L996.924 67.1748C997.125 66.5923 997.363 66.029 997.635 65.4872L997.188 65.2632C997.473 64.6941 997.794 64.148 998.148 63.6273L998.561 63.9082C998.906 63.4009 999.282 62.9185 999.687 62.4637L999.314 62.1312C999.735 61.6577 1000.19 61.213 1000.66 60.7997L1000.99 61.1779C1001.45 60.7781 1001.94 60.4088 1002.45 60.0724L1002.18 59.6549C1002.7 59.3072 1003.26 58.9934 1003.83 58.7162L1004.04 59.1659C1004.59 58.8997 1005.16 58.6685 1005.74 58.4748L1005.58 58.0004C1006.18 57.8016 1006.79 57.641 1007.42 57.521L1007.51 58.012C1008.11 57.8978 1008.71 57.8217 1009.33 57.7861L1009.3 57.2869C1009.92 57.2508 1010.56 57.2549 1011.2 57.3016L1011.16 57.8003C1011.46 57.8225 1011.77 57.8545 1012.07 57.8968C1012.38 57.939 1012.68 57.9908 1012.98 58.0517L1013.08 57.5619C1013.7 57.6904 1014.31 57.8584 1014.91 58.0628L1014.74 58.5354C1015.33 58.7368 1015.89 58.9748 1016.43 59.2464L1016.65 58.7994C1017.22 59.0847 1017.77 59.4057 1018.29 59.7592L1018.01 60.1729C1018.52 60.5173 1019 60.8936 1019.45 61.2986L1019.79 60.9252C1020.26 61.3468 1020.7 61.7983 1021.12 62.2763L1020.74 62.6034C1021.14 63.0657 1021.51 63.5537 1021.85 64.064L1022.26 63.7889C1022.61 64.3165 1022.92 64.8671 1023.2 65.4373L1022.75 65.6558C1023.02 66.2036 1023.25 66.77 1023.44 67.3518L1023.92 67.1938C1024.12 67.791 1024.28 68.4037 1024.4 69.0289L1023.91 69.1232C1024.02 69.7183 1024.1 70.325 1024.13 70.9404L1024.63 70.9115C1024.67 71.5362 1024.66 72.1693 1024.62 72.808L1024.12 72.7715C1024.1 73.0744 1024.06 73.3786 1024.02 73.6839C1023.98 73.9892 1023.93 74.2907 1023.87 74.5882L1024.36 74.6885C1024.23 75.3159 1024.06 75.9264 1023.85 76.5177L1023.38 76.3544C1023.18 76.9369 1022.94 77.5002 1022.67 78.0419L1023.12 78.266C1022.83 78.8351 1022.51 79.3812 1022.16 79.9019L1021.74 79.621C1021.4 80.1283 1021.02 80.6106 1020.62 81.0655L1020.99 81.398C1020.57 81.8715 1020.12 82.3162 1019.64 82.7295L1019.31 82.3513C1018.85 82.751 1018.36 83.1204 1017.85 83.4568L1018.13 83.8742C1017.6 84.222 1017.05 84.5358 1016.48 84.8129L1016.26 84.3632C1015.71 84.6295 1015.15 84.8607 1014.57 85.0543L1014.72 85.5287C1014.13 85.7275 1013.51 85.8882 1012.89 86.0082L1012.79 85.5172C1012.2 85.6314 1011.59 85.7075 1010.98 85.7431L1011.01 86.2422C1010.38 86.2784 1009.75 86.2742 1009.11 86.2275L1009.15 85.7289C1008.84 85.7067 1008.54 85.6746 1008.23 85.6324C1007.93 85.5901 1007.63 85.5384 1007.33 85.4774L1007.23 85.9672C1006.6 85.8387 1005.99 85.6708 1005.4 85.4663L1005.56 84.9938C1004.98 84.7924 1004.42 84.5544 1003.88 84.2828L1003.65 84.7298C1003.08 84.4445 1002.54 84.1234 1002.02 83.7699L1002.3 83.3563C1001.79 83.0119 1001.31 82.6355 1000.85 82.2305L1000.52 82.6039C1000.05 82.1824 999.602 81.7308 999.188 81.2528L999.566 80.9258C999.167 80.4634 998.797 79.9754 998.461 79.4651L998.043 79.7403C997.696 79.2127 997.382 78.6621 997.105 78.0919L997.554 77.8733C997.288 77.3256 997.057 76.7591 996.863 76.1774L996.389 76.3353C996.19 75.7382 996.029 75.1254 995.909 74.5003L996.401 74.406C996.286 73.8109 996.21 73.2041 996.175 72.5888L995.675 72.6177Z" stroke="#050701" stroke-dasharray="2 2"/>
<circle cx="984.638" cy="84.3833" r="4.5" transform="rotate(-172.12 984.638 84.3833)" fill="#F02782" stroke="black"/>
<path d="M1043.22 143.495L1044.74 133.64" stroke="#7A6D6D"/>
<circle cx="1045.52" cy="120.577" r="14.5" transform="rotate(136.86 1045.52 120.577)" fill="#6250D2"/>
<g filter="url(#filter3_d_57075_9)">
<circle cx="1045.77" cy="121.552" r="14" transform="rotate(136.86 1045.77 121.552)" stroke="black" stroke-dasharray="2 2" shape-rendering="crispEdges"/>
</g>
<circle cx="1046.3" cy="120.702" r="14" transform="rotate(136.86 1046.3 120.702)" stroke="black" stroke-dasharray="2 2"/>
<path d="M1040.33 131.383C1039.82 131.018 1039.33 130.616 1038.86 130.178L1039.2 129.813C1038.98 129.606 1038.77 129.389 1038.55 129.164C1038.34 128.94 1038.14 128.71 1037.95 128.475L1037.56 128.793C1037.16 128.298 1036.79 127.784 1036.46 127.253L1036.88 126.988C1036.55 126.465 1036.27 125.926 1036.02 125.374L1035.56 125.58C1035.3 125.001 1035.08 124.408 1034.89 123.805L1035.37 123.66C1035.19 123.073 1035.06 122.478 1034.96 121.877L1034.46 121.958C1034.36 121.332 1034.3 120.701 1034.28 120.07L1034.78 120.053C1034.76 119.443 1034.78 118.831 1034.84 118.223L1034.34 118.174C1034.4 117.545 1034.5 116.92 1034.65 116.302L1035.13 116.415C1035.27 115.822 1035.45 115.236 1035.66 114.662L1035.2 114.486C1035.42 113.897 1035.68 113.32 1035.98 112.758L1036.42 112.994C1036.7 112.459 1037.03 111.94 1037.39 111.439L1036.98 111.147C1037.34 110.639 1037.75 110.15 1038.18 109.682L1038.55 110.025C1038.76 109.803 1038.97 109.587 1039.2 109.376C1039.42 109.165 1039.65 108.963 1039.89 108.77L1039.57 108.384C1040.06 107.977 1040.58 107.609 1041.11 107.277L1041.37 107.702C1041.9 107.376 1042.44 107.087 1042.99 106.837L1042.78 106.382C1043.36 106.119 1043.95 105.896 1044.56 105.714L1044.7 106.192C1045.29 106.015 1045.88 105.877 1046.49 105.778L1046.4 105.284C1047.03 105.182 1047.66 105.12 1048.29 105.099L1048.31 105.599C1048.92 105.579 1049.53 105.599 1050.14 105.658L1050.19 105.161C1050.82 105.222 1051.44 105.325 1052.06 105.468L1051.95 105.955C1052.54 106.093 1053.13 106.269 1053.7 106.485L1053.88 106.017C1054.46 106.238 1055.04 106.498 1055.6 106.798L1055.37 107.239C1055.9 107.525 1056.42 107.847 1056.92 108.207L1057.21 107.801C1057.72 108.165 1058.21 108.567 1058.68 109.005L1058.34 109.37C1058.56 109.577 1058.78 109.794 1058.99 110.019C1059.2 110.244 1059.4 110.473 1059.59 110.708L1059.98 110.39C1060.38 110.885 1060.75 111.399 1061.08 111.93L1060.66 112.195C1060.99 112.718 1061.27 113.257 1061.52 113.809L1061.98 113.603C1062.24 114.182 1062.47 114.776 1062.65 115.378L1062.17 115.523C1062.35 116.11 1062.49 116.706 1062.58 117.307L1063.08 117.225C1063.18 117.851 1063.24 118.482 1063.26 119.113L1062.76 119.13C1062.78 119.741 1062.76 120.352 1062.7 120.961L1063.2 121.009C1063.14 121.638 1063.04 122.264 1062.89 122.881L1062.41 122.768C1062.27 123.361 1062.09 123.947 1061.88 124.521L1062.35 124.697C1062.12 125.286 1061.86 125.864 1061.56 126.425L1061.12 126.189C1060.84 126.724 1060.51 127.243 1060.16 127.744L1060.56 128.036C1060.2 128.544 1059.79 129.034 1059.36 129.501L1058.99 129.159C1058.78 129.38 1058.57 129.597 1058.34 129.807C1058.12 130.018 1057.89 130.22 1057.65 130.413L1057.97 130.799C1057.48 131.206 1056.96 131.575 1056.43 131.906L1056.17 131.481C1055.64 131.808 1055.1 132.096 1054.55 132.346L1054.76 132.801C1054.18 133.064 1053.59 133.287 1052.98 133.469L1052.84 132.991C1052.25 133.168 1051.66 133.307 1051.06 133.405L1051.14 133.899C1050.51 134.002 1049.88 134.063 1049.25 134.084L1049.23 133.584C1048.62 133.604 1048.01 133.584 1047.4 133.525L1047.35 134.022C1046.72 133.961 1046.1 133.858 1045.48 133.715L1045.59 133.228C1045 133.09 1044.41 132.914 1043.84 132.698L1043.67 133.167C1043.08 132.945 1042.5 132.685 1041.94 132.385L1042.17 131.944C1041.64 131.658 1041.12 131.336 1040.62 130.976L1040.33 131.383Z" stroke="#050701" stroke-dasharray="2 2"/>
<circle cx="1042.53" cy="147.364" r="4.5" transform="rotate(136.86 1042.53 147.364)" fill="#F02782" stroke="black"/>
<circle cx="1086.98" cy="560.802" r="18.4648" transform="rotate(-4.52672 1086.98 560.802)" fill="#605DE0"/>
<g filter="url(#filter4_d_57075_9)">
<circle cx="1087.5" cy="559.632" r="17.9648" transform="rotate(-4.52672 1087.5 559.632)" stroke="black" stroke-dasharray="2 2" shape-rendering="crispEdges"/>
</g>
<circle cx="1086.3" cy="560.058" r="17.9648" transform="rotate(-4.52672 1086.3 560.058)" stroke="black" stroke-dasharray="2 2"/>
<path d="M1100.87 554.678C1101.03 555.342 1101.16 556.021 1101.26 556.713L1100.76 556.779C1100.81 557.111 1100.84 557.445 1100.87 557.782C1100.9 558.12 1100.91 558.456 1100.92 558.79L1101.42 558.778C1101.44 559.476 1101.42 560.167 1101.35 560.848L1100.86 560.804C1100.8 561.479 1100.7 562.144 1100.57 562.798L1101.06 562.897C1100.92 563.578 1100.74 564.246 1100.53 564.9L1100.05 564.745C1099.85 565.387 1099.6 566.014 1099.32 566.623L1099.78 566.83C1099.49 567.46 1099.17 568.073 1098.82 568.664L1098.39 568.407C1098.04 568.985 1097.67 569.542 1097.26 570.076L1097.66 570.379C1097.24 570.929 1096.79 571.455 1096.31 571.955L1095.95 571.609C1095.49 572.095 1095 572.555 1094.48 572.987L1094.8 573.37C1094.27 573.813 1093.72 574.226 1093.14 574.609L1092.87 574.192C1092.31 574.561 1091.73 574.901 1091.13 575.208L1091.35 575.653C1090.74 575.965 1090.11 576.245 1089.46 576.489L1089.28 576.021C1088.66 576.255 1088.02 576.456 1087.36 576.621L1087.48 577.106C1086.82 577.273 1086.14 577.404 1085.45 577.497L1085.38 577.002C1085.05 577.046 1084.72 577.082 1084.38 577.109C1084.04 577.136 1083.71 577.153 1083.37 577.161L1083.38 577.661C1082.69 577.677 1081.99 577.655 1081.31 577.594L1081.36 577.096C1080.68 577.037 1080.02 576.939 1079.36 576.806L1079.26 577.296C1078.58 577.157 1077.91 576.981 1077.26 576.769L1077.42 576.293C1076.77 576.085 1076.15 575.841 1075.54 575.564L1075.33 576.019C1074.7 575.732 1074.09 575.411 1073.5 575.057L1073.75 574.628C1073.18 574.283 1072.62 573.906 1072.08 573.499L1071.78 573.897C1071.23 573.478 1070.71 573.03 1070.21 572.553L1070.55 572.191C1070.07 571.727 1069.61 571.236 1069.17 570.72L1068.79 571.041C1068.35 570.513 1067.93 569.959 1067.55 569.381L1067.97 569.105C1067.6 568.547 1067.26 567.967 1066.95 567.366L1066.51 567.593C1066.2 566.981 1065.92 566.349 1065.67 565.699L1066.14 565.523C1065.91 564.899 1065.71 564.257 1065.54 563.6L1065.06 563.722C1064.89 563.059 1064.76 562.38 1064.66 561.688L1065.16 561.621C1065.11 561.29 1065.08 560.955 1065.05 560.618C1065.03 560.281 1065.01 559.945 1065 559.611L1064.5 559.623C1064.48 558.925 1064.51 558.234 1064.57 557.552L1065.06 557.596C1065.12 556.922 1065.22 556.256 1065.35 555.603L1064.86 555.503C1065 554.822 1065.18 554.154 1065.39 553.501L1065.87 553.655C1066.08 553.014 1066.32 552.387 1066.6 551.778L1066.14 551.571C1066.43 550.94 1066.75 550.328 1067.1 549.736L1067.53 549.993C1067.88 549.416 1068.26 548.858 1068.66 548.324L1068.26 548.021C1068.68 547.472 1069.13 546.946 1069.61 546.446L1069.97 546.791C1070.43 546.306 1070.92 545.845 1071.44 545.414L1071.12 545.03C1071.65 544.588 1072.2 544.174 1072.78 543.792L1073.06 544.209C1073.61 543.839 1074.19 543.5 1074.8 543.193L1074.57 542.748C1075.18 542.435 1075.81 542.156 1076.46 541.912L1076.64 542.38C1077.26 542.146 1077.9 541.945 1078.56 541.78L1078.44 541.295C1079.1 541.128 1079.78 540.997 1080.47 540.903L1080.54 541.399C1080.87 541.354 1081.21 541.318 1081.54 541.291C1081.88 541.265 1082.22 541.248 1082.55 541.24L1082.54 540.74C1083.24 540.723 1083.93 540.746 1084.61 540.806L1084.56 541.304C1085.24 541.364 1085.9 541.461 1086.56 541.594L1086.66 541.104C1087.34 541.243 1088.01 541.42 1088.66 541.632L1088.51 542.107C1089.15 542.316 1089.77 542.56 1090.38 542.837L1090.59 542.382C1091.22 542.668 1091.83 542.99 1092.42 543.343L1092.17 543.773C1092.75 544.118 1093.3 544.495 1093.84 544.902L1094.14 544.504C1094.69 544.922 1095.22 545.371 1095.72 545.848L1095.37 546.21C1095.86 546.673 1096.32 547.164 1096.75 547.68L1097.13 547.359C1097.57 547.888 1097.99 548.442 1098.37 549.019L1097.95 549.295C1098.32 549.853 1098.66 550.434 1098.97 551.035L1099.41 550.807C1099.73 551.419 1100.01 552.051 1100.25 552.702L1099.78 552.877C1100.02 553.502 1100.22 554.143 1100.38 554.8L1100.87 554.678Z" stroke="#050701" stroke-dasharray="2 2"/>
<path d="M1105.84 542.779L1104.78 541.713L1093.91 552.371L1105.84 542.779Z" fill="#382A31"/>
<circle cx="1108.08" cy="539.597" r="5.2022" transform="rotate(-4.52672 1108.08 539.597)" fill="#F02782"/>
<path d="M1107.63 536.289C1109.04 536.289 1110.47 536.465 1111.11 537.942C1111.38 538.578 1111.58 539.48 1111.58 540.179" stroke="#070606" stroke-width="3" stroke-linecap="square"/>
<path d="M1067.46 571.971L1068.15 573.306L1081.71 566.377L1067.46 571.971Z" fill="#382A31"/>
<circle cx="1064.37" cy="574.34" r="5.2022" transform="rotate(-167.17 1064.37 574.34)" fill="#F02782"/>
<path d="M1061.14 571.982C1060.95 572.411 1060.39 574.297 1061.79 575.73C1062.94 577.321 1064.65 577.327 1065.33 577.212" stroke="#382A31" stroke-width="3" stroke-linecap="round"/>
<path d="M1069.14 44.7722L1073.04 53.9489" stroke="#7A6D6D"/>
<circle cx="1079.27" cy="65.4545" r="14.5" transform="rotate(-75 1079.27 65.4545)" fill="#605DE0"/>
<g filter="url(#filter5_d_57075_9)">
<circle cx="1078.55" cy="64.7588" r="14" transform="rotate(-75 1078.55 64.7588)" stroke="black" stroke-dasharray="2 2" shape-rendering="crispEdges"/>
</g>
<circle cx="1078.55" cy="65.7588" r="14" transform="rotate(-75 1078.55 65.7588)" stroke="black" stroke-dasharray="2 2"/>
<path d="M1077.98 53.5342C1078.61 53.5758 1079.24 53.6584 1079.86 53.7839L1079.76 54.2742C1080.06 54.3337 1080.36 54.4033 1080.66 54.483C1080.96 54.5628 1081.25 54.6515 1081.54 54.7489L1081.7 54.2753C1082.3 54.4806 1082.89 54.7229 1083.45 54.9991L1083.23 55.4477C1083.78 55.7198 1084.31 56.0258 1084.82 56.3624L1085.09 55.9467C1085.62 56.3003 1086.12 56.6865 1086.6 57.1018L1086.27 57.4775C1086.73 57.8821 1087.16 58.3154 1087.56 58.7736L1087.94 58.4443C1088.36 58.9213 1088.74 59.4245 1089.09 59.9501L1088.68 60.2277C1089.01 60.736 1089.32 61.266 1089.59 61.8141L1090.04 61.5928C1090.32 62.1594 1090.56 62.7447 1090.77 63.3448L1090.29 63.506C1090.49 64.0825 1090.65 64.6732 1090.77 65.2745L1091.26 65.1766C1091.38 65.7937 1091.47 66.4217 1091.51 67.0569L1091.01 67.0896C1091.05 67.6943 1091.05 68.3058 1091.01 68.9208L1091.51 68.954C1091.47 69.5783 1091.38 70.2061 1091.26 70.834L1090.77 70.736C1090.71 71.0339 1090.64 71.3318 1090.56 71.6295C1090.48 71.9271 1090.39 72.2199 1090.29 72.5076L1090.77 72.6679C1090.56 73.2744 1090.32 73.8594 1090.04 74.4209L1089.59 74.2002C1089.32 74.7532 1089.02 75.2827 1088.68 75.7866L1089.09 76.0643C1088.74 76.5936 1088.35 77.0957 1087.94 77.5686L1087.56 77.2386C1087.16 77.6993 1086.73 78.1313 1086.27 78.5324L1086.6 78.9087C1086.12 79.3262 1085.62 79.7115 1085.09 80.0624L1084.81 79.6466C1084.3 79.9859 1083.77 80.292 1083.23 80.5625L1083.45 81.0108C1082.88 81.2906 1082.3 81.5337 1081.7 81.738L1081.53 81.2647C1080.96 81.461 1080.37 81.6202 1079.77 81.7402L1079.86 82.2306C1079.25 82.3538 1078.62 82.4373 1077.98 82.4788L1077.95 81.9799C1077.35 82.0195 1076.74 82.0198 1076.12 81.9788L1076.09 82.4777C1075.46 82.4362 1074.83 82.3536 1074.21 82.2281L1074.3 81.7378C1074.01 81.6782 1073.71 81.6087 1073.41 81.5289C1073.11 81.4492 1072.82 81.3604 1072.53 81.2631L1072.37 81.7367C1071.77 81.5314 1071.18 81.2891 1070.62 81.0129L1070.84 80.5642C1070.29 80.2922 1069.76 79.9862 1069.25 79.6496L1068.98 80.0653C1068.45 79.7117 1067.95 79.3254 1067.47 78.9101L1067.8 78.5344C1067.34 78.1298 1066.91 77.6966 1066.51 77.2383L1066.13 77.5677C1065.71 77.0906 1065.33 76.5875 1064.98 76.0619L1065.39 75.7843C1065.05 75.276 1064.75 74.7459 1064.48 74.1979L1064.03 74.4192C1063.75 73.8525 1063.51 73.2673 1063.3 72.6671L1063.78 72.506C1063.58 71.9294 1063.42 71.3387 1063.3 70.7375L1062.81 70.8354C1062.69 70.2182 1062.6 69.5902 1062.56 68.9551L1063.06 68.9224C1063.02 68.3177 1063.02 67.7062 1063.06 67.0912L1062.56 67.058C1062.6 66.4336 1062.69 65.8059 1062.81 65.1779L1063.3 65.2759C1063.36 64.9781 1063.43 64.6802 1063.51 64.3825C1063.59 64.0849 1063.68 63.7921 1063.78 63.5044L1063.3 63.3441C1063.51 62.7376 1063.75 62.1526 1064.03 61.5911L1064.48 61.8118C1064.75 61.2587 1065.05 60.7293 1065.39 60.2254L1064.98 59.9476C1065.33 59.4183 1065.72 58.9162 1066.13 58.4434L1066.51 58.7733C1066.91 58.3126 1067.34 57.8807 1067.8 57.4795L1067.47 57.1033C1067.95 56.6857 1068.45 56.3004 1068.98 55.9496L1069.26 56.3654C1069.76 56.026 1070.29 55.72 1070.84 55.4495L1070.62 55.0011C1071.19 54.7214 1071.77 54.4783 1072.37 54.274L1072.53 54.7473C1073.11 54.551 1073.7 54.3918 1074.3 54.2717L1074.21 53.7814C1074.82 53.6582 1075.45 53.5747 1076.09 53.5331L1076.12 54.0321C1076.72 53.9925 1077.33 53.9922 1077.95 54.0331L1077.98 53.5342Z" stroke="#050701" stroke-dasharray="2 2"/>
<circle cx="1067.68" cy="41.1238" r="4.5" transform="rotate(-75 1067.68 41.1238)" fill="#F02782" stroke="black"/>
<rect width="46" height="12" rx="6" transform="matrix(-0.459372 -0.888244 -0.888244 0.459372 1193.74 86.0747)" fill="#4D493C"/>
<rect width="46" height="12" rx="6" transform="matrix(-0.459372 -0.888244 -0.888244 0.459372 1212.2 140.85)" fill="#4D493C"/>
<ellipse cx="3.5" cy="4" rx="3.5" ry="4" transform="matrix(-0.827955 -0.560794 -0.560794 0.827955 1191.81 83.5814)" fill="#FFC9C9"/>
<path d="M1201.25 138.29C1200.01 140.119 1200.45 141.372 1202.06 142.456C1203.66 143.54 1206.79 143.497 1208.02 141.668C1209.26 139.839 1208.97 137.478 1207.37 136.394C1205.77 135.31 1202.49 136.461 1201.25 138.29Z" fill="#FFC9C9"/>
<path d="M1187.06 86.5249L1187.1 102.13" stroke="#FFC9C9" stroke-width="3" stroke-linecap="round"/>
<path d="M1187.1 102.13L1204.46 136.234" stroke="#FFC9C9" stroke-width="3" stroke-linecap="round"/>
<rect width="46" height="12" rx="6" transform="matrix(0.951778 -0.306788 -0.306788 -0.951778 863.702 604.822)" fill="#91771B"/>
<rect width="46" height="12" rx="6" transform="matrix(0.951778 -0.306788 -0.306788 -0.951778 806.635 614.005)" fill="#91771B"/>
<ellipse cx="3.5" cy="4" rx="3.5" ry="4" transform="matrix(0.689513 -0.724274 -0.724274 -0.689513 866.48 603.324)" fill="#FFC9C9"/>
<path d="M810.963 603.628C809.363 602.105 808.054 602.332 806.722 603.732C805.389 605.132 804.916 608.226 806.516 609.75C808.116 611.273 810.493 611.373 811.826 609.973C813.159 608.573 812.563 605.151 810.963 603.628Z" fill="#FFC9C9"/>
<path d="M864.36 598.152L848.961 595.621" stroke="#FFC9C9" stroke-width="3" stroke-linecap="round"/>
<path d="M848.961 595.621L812.464 607.128" stroke="#FFC9C9" stroke-width="3" stroke-linecap="round"/>
<rect x="307.349" y="549.385" width="84.5334" height="22.0522" rx="11.0261" transform="rotate(48.6483 307.349 549.385)" fill="#4E4392"/>
<rect x="225.89" y="481.214" width="84.5334" height="22.0522" rx="11.0261" transform="rotate(48.6483 225.89 481.214)" fill="#4E4392"/>
<ellipse cx="304.585" cy="562.263" rx="6.43189" ry="7.35073" transform="rotate(77.191 304.585 562.263)" fill="#FFC9C9"/>
<path d="M222.963 501.668C219.004 502.568 217.152 500.978 216.365 497.514C215.577 494.051 217.741 488.721 221.699 487.821C225.658 486.921 229.506 488.999 230.293 492.463C231.081 495.927 226.922 500.768 222.963 501.668Z" fill="#FFC9C9"/>
<path d="M302.114 560.533L275.423 550.047" stroke="#FFC9C9" stroke-width="3" stroke-linecap="round"/>
<path d="M275.423 550.047L228.624 497.554" stroke="#FFC9C9" stroke-width="3" stroke-linecap="round"/>
<rect x="258.378" y="122.885" width="65.5221" height="17.0927" rx="8.54636" transform="rotate(-109.344 258.378 122.885)" fill="#DFDFDF"/>
<rect x="297.117" y="195.534" width="65.5221" height="17.0927" rx="8.54636" transform="rotate(-109.344 297.117 195.534)" fill="#DFDFDF"/>
<ellipse cx="264.106" cy="114.433" rx="4.98538" ry="5.69757" transform="rotate(-80.8018 264.106 114.433)" fill="#FFC9C9"/>
<path d="M305.161 181.685C308.268 182.188 309.137 183.869 308.697 186.587C308.256 189.305 305.154 192.506 302.048 192.003C298.941 191.5 296.78 188.889 297.22 186.171C297.66 183.453 302.055 181.182 305.161 181.685Z" fill="#FFC9C9"/>
<path d="M265.379 116.394L281.514 131.682" stroke="#FFC9C9" stroke-width="3" stroke-linecap="round"/>
<path d="M281.514 131.682L299.899 182.998" stroke="#FFC9C9" stroke-width="3" stroke-linecap="round"/>
<path d="M488.5 486.5L404 414.5L626 243L720 336.5L815.5 414.5V451.5L706 468L637.5 539.5L488.5 486.5Z" fill="#F7F7EE" stroke="#D1D1D1"/>
<path d="M492.5 471.5L408 399.5L630 228L724 321.5L819.5 399.5V436.5L710 453L641.5 524.5L492.5 471.5Z" fill="#F7F7EE" stroke="#D1D1D1"/>
<path d="M492.5 453.5L408 381.5L630 210L724 303.5L819.5 381.5V418.5L710 435L641.5 506.5L492.5 453.5Z" fill="#D9D9D9" stroke="#D1D1D1"/>
<path d="M506.5 447.5L422 375.5L644 204L738 297.5L833.5 375.5V412.5L724 429L655.5 500.5L506.5 447.5Z" fill="#F4F4F4" stroke="#8B8B8B"/>
<path d="M790.106 346.669L732.309 365.591C725.293 360.309 710.548 349.9 707.703 350.523C704.148 351.302 663.319 363.272 660.075 367.077C657.48 370.12 637.407 393.043 627.695 404.124L576.921 390.923L529.638 393.972L472.625 384.387" stroke="#26273D" stroke-width="7"/>
<path d="M582.479 377.535L584.742 377.816L582.127 400.701L582.479 377.535Z" fill="#382A31"/>
<circle cx="7.87103" cy="7.87103" r="7.87103" transform="matrix(-0.550302 -0.834966 -0.834966 0.550302 595.099 374.144)" fill="#3D1EFF"/>
<path d="M588.569 369.376C587.255 367.688 585.717 366.146 583.36 366.758C582.346 367.022 581.081 367.618 580.247 368.268" stroke="white" stroke-linecap="round"/>
<path d="M558.951 391.696L570.792 402.503L587.846 404.989L603.183 400.557L610.112 394.782L612.502 401.537L626.363 403.106L637.485 397.018L656.493 388.731L659.382 388.311L671.439 392.575L685.713 396.584C687.313 395.913 690.414 394.256 690.014 392.999C689.614 391.742 683.996 383.836 676.848 377.203L687.649 379.066L700.053 375.704L707.482 370.934L709.912 364.727L712.918 354.081L709.635 344.441L710.318 323.594L691.937 301.539C691.937 301.539 671.432 290.817 657.068 288.851C643.13 286.943 634.502 287.009 621.115 291.381C607.044 295.976 600.343 302.128 589.269 311.957C580.445 319.789 575.794 324.771 569.264 334.594C561.888 345.689 556.971 351.69 554.994 365.571C553.018 379.452 558.951 391.696 558.951 391.696Z" fill="#FF77A8"/>
<mask id="mask0_57075_9" style="mask-type:alpha" maskUnits="userSpaceOnUse" x="554" y="287" width="159" height="118">
<path d="M558.951 391.696L570.792 402.503L587.846 404.989L603.183 400.557L610.112 394.782L612.502 401.537L626.363 403.106L637.485 397.018L656.493 388.731L659.382 388.311L671.439 392.575L685.713 396.584C687.313 395.913 690.414 394.256 690.014 392.999C689.614 391.742 683.996 383.836 676.848 377.203L687.649 379.066L700.053 375.704L707.482 370.934L709.912 364.727L712.918 354.081L709.635 344.441L710.318 323.594L691.937 301.539C691.937 301.539 671.432 290.817 657.068 288.851C643.13 286.943 634.502 287.009 621.115 291.381C607.044 295.976 600.343 302.128 589.269 311.957C580.445 319.789 575.794 324.771 569.264 334.594C561.888 345.689 556.971 351.69 554.994 365.571C553.018 379.452 558.951 391.696 558.951 391.696Z" fill="#FF77A8"/>
</mask>
<g mask="url(#mask0_57075_9)">
<path d="M703.696 337.714C704.114 337.435 703.696 334.137 703.696 333.412C703.696 330.922 703.696 328.432 703.696 325.942C703.696 324.557 701.842 322.85 700.98 321.892C698.465 319.097 697.406 312.377 694.5 310L687 301L680 297L676.5 295L675 293.5" stroke="#A1B3F5" stroke-width="2" stroke-linecap="round"/>
<path d="M628.426 290.309C628.268 293.163 622.858 295.279 624.6 298.574C626.068 301.353 629.339 301.417 631.87 302.401C633.002 302.841 635.609 303.052 636.156 304.085C636.862 305.419 636.991 308.457 634.969 308.906C633.53 309.226 633.83 311.661 631.87 311.661C630.036 311.661 629.852 310.99 628.77 313.039C627.724 315.021 626.883 319.038 627.89 321.304C628.757 323.254 629.821 325.837 631.334 327.35C632.431 328.447 633.247 328.494 633.247 330.296C633.247 332.171 633.247 334.046 633.247 335.921C633.247 338.975 634.191 344.484 631.87 346.941C630.678 348.204 628.596 348.564 626.972 349.543C624.76 350.878 622.989 352.76 620.984 354.365C619.017 355.938 615.953 357.434 614.727 359.722C613.342 362.307 613.557 365.479 612.163 367.987C611.085 369.929 611.335 372.851 611.819 375.028C612.493 378.062 612.208 381.778 613.426 384.671C613.832 385.634 614.302 386.67 613.771 387.732C613.512 388.248 612.948 388.319 612.661 388.957C612.197 389.986 611.912 390.124 611.073 390.87C610.559 391.327 610.862 392.988 610.862 393.625L611.073 397L612.163 401.5" stroke="#A1B3F5" stroke-width="2" stroke-linecap="round"/>
<path d="M673.466 375.912C672.871 380.672 666.377 384.738 662.116 386.001C660.859 386.374 659.147 387.349 657.893 387.442C656.721 387.529 656.415 387.52 655.451 388.163L649.5 391.5L643.5 393.5C641.833 394.167 638.5 395.6 638.5 396C638.5 396.4 635.5 398.167 634 399C631.667 400.333 626.8 403 626 403C625.2 403 617 402 613 401.5" stroke="#A1B3F5" stroke-width="2" stroke-linecap="round"/>
<path d="M669.5 371.5C669.9 372.3 671.667 374.167 672.5 375L676 376L678 377.5L687.5 379L699.5 376L705.5 371.5L707 370.5L712.5 355.5" stroke="#A1B3F5" stroke-width="2" stroke-linecap="round"/>
<path d="M593.5 307.5C591.836 307.87 591.022 313.274 590 314.5C587.361 317.667 584.236 320.714 583.208 324.828C582.473 327.767 581.733 331.194 581.987 334.236C582.168 336.414 582.745 338.522 583.388 340.602C583.759 341.802 583.829 343.456 584.509 344.525C584.95 345.218 586.246 346.248 586.271 347.087C586.307 348.31 585.584 349.467 585.55 350.69C585.442 354.574 586.653 357.714 588.432 361.179C589.962 364.159 592.873 365.789 594.918 368.346C596.894 370.815 594.692 375.065 593.857 377.674C591.991 383.506 588.289 392.344 593.477 397.531" stroke="#A1B3F5" stroke-width="2" stroke-linecap="round"/>
<path d="M588 405.5C585.943 405.5 578.767 403.508 576.902 402.575C573.142 400.695 570.08 398.318 568.615 394.248C566.787 389.171 564.559 383.523 564.311 378.074C564.141 374.323 564.778 370.871 565.733 367.265C566.286 365.173 568.414 363.544 568.895 361.5C569.089 360.679 566.991 358.153 566.453 357.496C564.473 355.076 563.683 352.275 563.25 349.249C563.115 348.298 563 347 563.5 345.5C563.5 344.5 565.21 342 566 341L566 337" stroke="#A1B3F5" stroke-width="2" stroke-linecap="round"/>
<path d="M654.009 287.996C654.387 288.798 654.48 290.361 655.13 290.918C656.373 291.983 657.223 293.604 657.612 295.162C658.488 298.663 660.301 302.336 660.495 306.011C660.606 308.128 660.557 310.179 659.774 312.137C659.629 312.499 659.463 313.756 659.214 313.898C658.748 314.165 658.234 313.647 657.973 314.299C657.782 314.776 656.945 314.828 656.531 315.219C655.799 315.914 655.056 316.733 654.45 317.541C653.47 318.848 652.812 320.7 652.588 322.266C652.307 324.236 654.009 325.148 654.009 326.91C654.009 328.607 652.837 329.913 651.847 331.233" stroke="#A1B3F5" stroke-width="2" stroke-linecap="round"/>
<path d="M607 330C603.5 324 604.25 319.124 604 318C603.444 315.5 603.403 310.364 603.5 309C603.749 305.519 604.928 299.184 608 297.5L610.5 295.5L612 294.5L613 293.5" stroke="#A1B3F5" stroke-width="2" stroke-linecap="round"/>
<path d="M627.036 383.309C628.001 382.398 628.628 381.294 629.578 380.343C631.064 378.857 632.834 377.969 634.639 376.954C637.458 375.368 640.694 374.075 643.984 373.988C644.849 373.965 645.769 373.681 646.62 373.517C648.339 373.187 649.509 372.409 650.974 371.564C652.457 370.708 653.803 369.667 655.211 368.692C656.606 367.727 658.14 367.101 659.66 366.362C662.092 365.178 664.708 364.633 667.192 363.608C669.814 362.526 672.538 361.092 675.336 360.548C676.265 360.367 677.211 360.317 678.067 359.889C678.683 359.58 678.643 359.193 679.055 358.735C679.408 358.344 679.528 357.736 679.761 357.276C680.522 355.774 681.365 354.314 682.115 352.804C683.058 350.905 683.996 348.976 684.469 346.896C684.779 345.533 684.751 343.971 685.293 342.671C685.486 342.208 685.349 341.378 685.716 341.047C686.39 340.44 687.124 339.994 687.623 339.246" stroke="#A1B3F5" stroke-width="2" stroke-linecap="round"/>
<path d="M686.6 340.567C687.476 340.567 688.275 334.959 687.566 334.251C685.997 332.682 683.825 331.255 683.294 328.864C683.015 327.61 682.588 326.962 682.588 325.52C682.588 324.151 681.989 323.095 681.919 321.842C681.799 319.678 681.036 317.505 680.247 315.489L679.5 309L678.204 305L676 301.445L671.5 296.5L665.5 290" stroke="#A1B3F5" stroke-width="2" stroke-linecap="round"/>
<path d="M671.059 326.752C670.206 326.752 670.629 330.441 670.629 331.245C670.629 331.88 671.078 332.093 671.059 332.775C671.041 333.449 670.773 334.121 670.521 334.735C669.337 337.629 668.826 340.715 667.187 343.435C666.748 344.164 666.06 345.116 665.383 345.658C665.115 345.872 665.994 345.334 666.327 345.251M630.5 364L633 361.5L636.5 358L644 355L651 351.5L653 342.5V337.5" stroke="#A9B8F0" stroke-width="2" stroke-linecap="round"/>
<path d="M701.206 337.487C701.306 338.483 702.53 340.58 703.244 341.336C704.138 342.283 705.055 343.843 705.055 345.185C705.055 345.927 705.358 346.339 705.482 347.021C705.73 348.384 705.415 349.933 705.18 351.272C705.086 351.811 705.302 353.135 704.929 353.561C703.899 354.738 703.263 356.245 702.388 357.535C701.706 358.542 701.108 359.651 700.351 360.604C699.92 361.147 698.057 360.841 697.483 360.906C693.317 361.376 689.21 361.711 685.019 361.711C683.291 361.711 681.663 361.711 679.926 361.711" stroke="#A1B3F5" stroke-width="2" stroke-linecap="round"/>
</g>
<path d="M714.211 310.409L712.09 309.571L703.416 330.909L714.211 310.409Z" fill="#382A31"/>
<circle cx="715.403" cy="304.643" r="7.87104" transform="rotate(-27.9739 715.403 304.643)" fill="#3D1EFF"/>
<path d="M712.776 300.329C714.738 299.478 716.827 298.861 718.602 300.528C719.365 301.245 720.19 302.374 720.611 303.345" stroke="white" stroke-linecap="round"/>
<path d="M593.815 300.067L591.912 301.322L604.4 320.676L593.815 300.067Z" fill="#382A31"/>
<circle cx="589.78" cy="295.78" r="7.87104" transform="rotate(-82.9274 589.78 295.78)" fill="#3D1EFF"/>
<path d="M584.739 295.453C585.169 293.358 585.864 291.294 588.248 290.798C589.273 290.585 590.672 290.558 591.708 290.771" stroke="white" stroke-linecap="round"/>
<path d="M-56.5 391C-20.3333 400.5 54.9 419.8 66.5 421C81 422.5 151 427 181.5 424C265.697 415.718 287.733 387.642 352.5 442C435.303 511.496 468.312 519.375 425 633C394.2 713.8 412.167 767.333 425 784" stroke="#D3F48D"/>
<path d="M-20 557C19 574 72 533 79.5 523C87 513 157 498 179 515C201 532 286 605 272.5 645C261.7 677 251 695.833 248 706.5L244.5 722.5" stroke="#D3F48D" stroke-width="2"/>
<path d="M-9.5 580.5C33 596.5 73.5998 556.035 80.0188 547.695C86.4378 539.355 151.911 524.759 170.74 538.938C189.569 553.116 262.318 614.001 250.764 647.362C241.52 674.051 232.363 689.759 229.795 698.655L226.799 712" stroke="#D3F48D" stroke-width="2"/>
</g>
<defs>
<filter id="filter0_d_57075_9" x="44.5696" y="280.008" width="56.9431" height="56.9431" filterUnits="userSpaceOnUse" color-interpolation-filters="sRGB">
<feFlood flood-opacity="0" result="BackgroundImageFix"/>
<feColorMatrix in="SourceAlpha" type="matrix" values="0 0 0 0 0 0 0 0 0 0 0 0 0 0 0 0 0 0 127 0" result="hardAlpha"/>
<feOffset dy="4"/>
<feGaussianBlur stdDeviation="2"/>
<feComposite in2="hardAlpha" operator="out"/>
<feColorMatrix type="matrix" values="0 0 0 0 0 0 0 0 0 0 0 0 0 0 0 0 0 0 0.25 0"/>
<feBlend mode="normal" in2="BackgroundImageFix" result="effect1_dropShadow_57075_9"/>
<feBlend mode="normal" in="SourceGraphic" in2="effect1_dropShadow_57075_9" result="shape"/>
</filter>
<filter id="filter1_d_57075_9" x="451.174" y="129.599" width="56.9368" height="56.9368" filterUnits="userSpaceOnUse" color-interpolation-filters="sRGB">
<feFlood flood-opacity="0" result="BackgroundImageFix"/>
<feColorMatrix in="SourceAlpha" type="matrix" values="0 0 0 0 0 0 0 0 0 0 0 0 0 0 0 0 0 0 127 0" result="hardAlpha"/>
<feOffset dy="4"/>
<feGaussianBlur stdDeviation="2"/>
<feComposite in2="hardAlpha" operator="out"/>
<feColorMatrix type="matrix" values="0 0 0 0 0 0 0 0 0 0 0 0 0 0 0 0 0 0 0.25 0"/>
<feBlend mode="normal" in2="BackgroundImageFix" result="effect1_dropShadow_57075_9"/>
<feBlend mode="normal" in="SourceGraphic" in2="effect1_dropShadow_57075_9" result="shape"/>
</filter>
<filter id="filter2_d_57075_9" x="988.242" y="56.1653" width="37.0034" height="37.0035" filterUnits="userSpaceOnUse" color-interpolation-filters="sRGB">
<feFlood flood-opacity="0" result="BackgroundImageFix"/>
<feColorMatrix in="SourceAlpha" type="matrix" values="0 0 0 0 0 0 0 0 0 0 0 0 0 0 0 0 0 0 127 0" result="hardAlpha"/>
<feOffset dy="4"/>
<feGaussianBlur stdDeviation="2"/>
<feComposite in2="hardAlpha" operator="out"/>
<feColorMatrix type="matrix" values="0 0 0 0 0 0 0 0 0 0 0 0 0 0 0 0 0 0 0.25 0"/>
<feBlend mode="normal" in2="BackgroundImageFix" result="effect1_dropShadow_57075_9"/>
<feBlend mode="normal" in="SourceGraphic" in2="effect1_dropShadow_57075_9" result="shape"/>
</filter>
<filter id="filter3_d_57075_9" x="1027.27" y="107.052" width="37" height="37.0001" filterUnits="userSpaceOnUse" color-interpolation-filters="sRGB">
<feFlood flood-opacity="0" result="BackgroundImageFix"/>
<feColorMatrix in="SourceAlpha" type="matrix" values="0 0 0 0 0 0 0 0 0 0 0 0 0 0 0 0 0 0 127 0" result="hardAlpha"/>
<feOffset dy="4"/>
<feGaussianBlur stdDeviation="2"/>
<feComposite in2="hardAlpha" operator="out"/>
<feColorMatrix type="matrix" values="0 0 0 0 0 0 0 0 0 0 0 0 0 0 0 0 0 0 0.25 0"/>
<feBlend mode="normal" in2="BackgroundImageFix" result="effect1_dropShadow_57075_9"/>
<feBlend mode="normal" in="SourceGraphic" in2="effect1_dropShadow_57075_9" result="shape"/>
</filter>
<filter id="filter4_d_57075_9" x="1065.04" y="541.167" width="44.9316" height="44.9315" filterUnits="userSpaceOnUse" color-interpolation-filters="sRGB">
<feFlood flood-opacity="0" result="BackgroundImageFix"/>
<feColorMatrix in="SourceAlpha" type="matrix" values="0 0 0 0 0 0 0 0 0 0 0 0 0 0 0 0 0 0 127 0" result="hardAlpha"/>
<feOffset dy="4"/>
<feGaussianBlur stdDeviation="2"/>
<feComposite in2="hardAlpha" operator="out"/>
<feColorMatrix type="matrix" values="0 0 0 0 0 0 0 0 0 0 0 0 0 0 0 0 0 0 0.25 0"/>
<feBlend mode="normal" in2="BackgroundImageFix" result="effect1_dropShadow_57075_9"/>
<feBlend mode="normal" in="SourceGraphic" in2="effect1_dropShadow_57075_9" result="shape"/>
</filter>
<filter id="filter5_d_57075_9" x="1060.04" y="50.2552" width="37.0073" height="37.0072" filterUnits="userSpaceOnUse" color-interpolation-filters="sRGB">
<feFlood flood-opacity="0" result="BackgroundImageFix"/>
<feColorMatrix in="SourceAlpha" type="matrix" values="0 0 0 0 0 0 0 0 0 0 0 0 0 0 0 0 0 0 127 0" result="hardAlpha"/>
<feOffset dy="4"/>
<feGaussianBlur stdDeviation="2"/>
<feComposite in2="hardAlpha" operator="out"/>
<feColorMatrix type="matrix" values="0 0 0 0 0 0 0 0 0 0 0 0 0 0 0 0 0 0 0.25 0"/>
<feBlend mode="normal" in2="BackgroundImageFix" result="effect1_dropShadow_57075_9"/>
<feBlend mode="normal" in="SourceGraphic" in2="effect1_dropShadow_57075_9" result="shape"/>
</filter>
<clipPath id="clip0_57075_9">
<rect width="1269" height="690" fill="white"/>
</clipPath>
</defs>
</svg>
